<?xml version="1.0" encoding="UTF-8"?>
<!-- Simplified stylised fox mark -->
<svg width="120" height="120" viewBox="0 0 256 256" fill="none" xmlns="http://www.w3.org/2000/svg">
  <title>ToonzyAI Fox Logo</title>
  <path fill="#FF3B00" d="M128 16c-29.1 0-52.7 23.6-52.7 52.7v44.6c0 31.8-25.8 57.6-57.6 57.6h-.8c5.5 40.9 46.2 72.1 95.8 72.1 53.2 0 96.4-36.6 96.4-81.7 0-41.5-37.2-75.1-83.7-75.1-12.5 0-24.5 2.4-35.4 7 9.6-7.1 22.1-11.3 35.8-11.3 37.1 0 67.2 25.9 67.2 57.9 0 32-30.1 57.9-67.2 57.9-37 0-67.1-25.6-67.2-57.4V68.7C84.8 47.4 104.1 30 128 30l38.9 34.8L128 16z"/>
</svg> 