<?xml version="1.0" standalone="no"?>
<!DOCTYPE svg PUBLIC "-//W3C//DTD SVG 20010904//EN"
 "http://www.w3.org/TR/2001/REC-SVG-20010904/DTD/svg10.dtd">
<svg version="1.0" xmlns="http://www.w3.org/2000/svg"
 width="1024.000000pt" height="1024.000000pt" viewBox="0 0 1024.000000 1024.000000"
 preserveAspectRatio="xMidYMid meet">

<g transform="translate(0.000000,1024.000000) scale(0.100000,-0.100000)"
fill="#000000" stroke="none">
<path d="M4717 8300 c-96 -40 -247 -144 -348 -238 -148 -139 -254 -283 -344
-467 -50 -101 -115 -277 -115 -311 0 -8 -80 -94 -178 -192 -196 -194 -272
-284 -397 -472 -475 -712 -523 -1530 -123 -2132 82 -124 263 -304 387 -387 79
-52 253 -143 312 -164 13 -4 12 10 -8 97 -13 55 -29 161 -35 234 -33 368 85
840 292 1177 118 193 316 409 483 529 111 80 286 168 385 195 184 50 394 51
780 5 255 -31 541 -38 632 -15 118 30 200 88 270 194 l41 61 -128 42 c-217 72
-417 185 -560 315 -28 25 -58 73 -102 164 -82 171 -157 282 -261 386 -121 122
-235 194 -395 249 l-50 17 1 89 c0 96 25 231 78 425 18 65 28 119 23 119 -26
0 -182 -85 -253 -138 -95 -71 -227 -208 -286 -298 -27 -41 -44 -59 -46 -50 -2
9 5 76 14 149 20 144 25 420 9 436 -7 7 -33 0 -78 -19z m835 -1429 c18 -4 56
-40 112 -106 l86 -100 -38 -8 c-20 -5 -82 -7 -137 -4 -136 5 -196 29 -286 114
-38 36 -69 69 -69 73 0 4 62 14 138 22 160 18 159 18 194 9z"/>
<path d="M5299 5824 c-269 -48 -499 -186 -699 -416 -135 -155 -254 -364 -314
-553 -103 -317 -113 -741 -26 -1063 l11 -44 72 8 c94 9 279 7 338 -4 l46 -9
18 101 c23 133 60 235 120 332 112 179 293 315 495 371 144 39 144 38 -8 -114
-157 -158 -214 -243 -271 -408 -32 -92 -35 -109 -36 -220 0 -155 4 -168 57
-190 79 -31 302 -83 409 -95 244 -28 517 32 777 170 50 28 92 46 92 41 0 -10
-112 -117 -182 -174 -70 -57 -201 -133 -289 -167 -110 -42 -204 -61 -344 -67
-161 -7 -263 10 -654 109 -296 75 -324 81 -446 85 -159 6 -270 -14 -426 -76
-425 -171 -698 -456 -839 -879 -56 -168 -109 -505 -76 -485 6 4 36 22 65 41
91 58 232 120 321 142 230 54 414 32 860 -105 269 -82 389 -109 570 -126 202
-19 493 14 720 82 593 177 1097 598 1360 1134 330 674 239 1442 -235 1987
-169 195 -421 368 -689 473 -293 115 -583 158 -797 119z m-829 -2679 c118 -17
232 -47 400 -104 l115 -39 -195 -94 c-107 -52 -241 -114 -297 -138 -57 -25
-103 -49 -103 -55 0 -16 146 -156 229 -219 83 -63 208 -127 289 -147 28 -7 52
-16 52 -19 0 -9 -109 -1 -221 15 -53 8 -188 39 -300 70 -328 89 -418 105 -624
112 -187 6 -296 -6 -384 -43 -19 -8 -36 -12 -38 -10 -9 9 69 162 124 245 156
235 390 391 653 434 58 10 202 6 300 -8z"/>
</g>
</svg>
